<?xml version="1.0" standalone="no"?>
<!DOCTYPE svg PUBLIC "-//W3C//DTD SVG 20010904//EN"
 "http://www.w3.org/TR/2001/REC-SVG-20010904/DTD/svg10.dtd">
<svg version="1.0" xmlns="http://www.w3.org/2000/svg"
 width="512.000000pt" height="512.000000pt" viewBox="0 0 512.000000 512.000000"
 preserveAspectRatio="xMidYMid meet">
<metadata>
Created by potrace 1.11, written by Peter Selinger 2001-2013
</metadata>
<g transform="translate(0.000000,512.000000) scale(0.100000,-0.100000)"
fill="#000000" stroke="none">
<path d="M2450 5024 c-83 -15 -113 -25 -176 -57 -50 -25 -806 -538 -922 -625
-140 -105 -62 -323 114 -324 54 0 74 12 359 201 362 241 670 444 704 464 29
18 31 18 58 -2 59 -41 923 -610 967 -636 93 -54 213 -20 260 75 29 59 15 154
-31 205 -10 11 -74 58 -143 104 -69 47 -159 108 -200 136 -41 28 -147 100
-235 160 -88 60 -195 132 -238 162 -42 29 -80 53 -83 53 -3 0 -20 10 -37 22
-18 13 -34 22 -37 22 -3 -1 -16 3 -30 8 -100 38 -231 51 -330 32z"/>
<path d="M638 3835 c-68 -17 -111 -56 -136 -124 -75 -203 180 -366 334 -213
41 41 56 81 56 142 0 137 -120 230 -254 195z"/>
<path d="M2535 3843 c-105 -22 -170 -88 -179 -183 -12 -119 83 -222 202 -222
58 1 88 12 131 48 132 111 69 328 -104 356 -16 3 -39 3 -50 1z"/>
<path d="M4390 3841 c-81 -17 -141 -70 -161 -144 -46 -170 127 -314 286 -237
127 61 151 226 49 325 -28 27 -57 45 -79 49 -20 4 -42 9 -48 10 -7 2 -28 0
-47 -3z"/>
<path d="M1553 3274 c-53 -19 -109 -80 -123 -135 -35 -127 47 -245 178 -256
118 -10 211 71 218 190 7 145 -136 251 -273 201z"/>
<path d="M3438 3280 c-116 -33 -178 -155 -136 -268 67 -178 321 -173 381 7 23
71 9 143 -41 202 -41 49 -138 77 -204 59z"/>
<path d="M675 2773 c-115 -22 -186 -99 -186 -201 -1 -207 273 -284 377 -106
49 83 28 204 -44 260 -32 25 -118 52 -147 47z"/>
<path d="M2472 2753 c-148 -73 -156 -288 -12 -363 101 -52 221 -17 275 81 56
103 17 227 -87 280 -46 23 -131 25 -176 2z"/>
<path d="M4316 2739 c-179 -113 -84 -390 128 -372 117 9 206 131 180 246 -29
133 -192 200 -308 126z"/>
<path d="M1585 2210 c-189 -41 -224 -294 -52 -379 195 -96 381 132 250 307
-42 56 -128 87 -198 72z"/>
<path d="M3431 2205 c-24 -8 -59 -29 -78 -47 -133 -128 -47 -348 135 -348 95
0 171 55 197 142 46 156 -98 300 -254 253z"/>
<path d="M627 1690 c-159 -48 -187 -276 -45 -363 169 -105 362 54 299 245 -30
91 -153 148 -254 118z"/>
<path d="M2486 1685 c-185 -66 -168 -339 23 -385 209 -50 340 211 178 353 -54
46 -128 58 -201 32z"/>
<path d="M4350 1686 c-74 -33 -117 -91 -126 -170 -6 -47 -3 -63 19 -108 46
-94 138 -134 239 -104 79 23 133 85 144 165 11 78 -31 163 -100 202 -45 25
-136 33 -176 15z"/>
<path d="M1444 1089 c-35 -10 -96 -63 -109 -94 -22 -54 -21 -114 1 -161 19
-41 43 -60 234 -189 80 -54 179 -122 220 -150 41 -28 138 -94 215 -146 77 -51
142 -96 145 -100 13 -14 160 -99 205 -118 85 -35 173 -51 270 -47 151 6 227
39 460 199 66 45 212 145 325 223 113 77 250 171 305 209 55 38 106 75 113 84
50 63 54 166 8 226 -52 68 -156 92 -232 52 -17 -9 -113 -71 -215 -138 -643
-427 -776 -513 -794 -513 -11 0 -119 65 -240 145 -837 553 -799 530 -852 528
-15 0 -42 -5 -59 -10z"/>
</g>
</svg>
